<?xml version="1.0" standalone="no"?>
<!DOCTYPE svg PUBLIC "-//W3C//DTD SVG 20010904//EN"
 "http://www.w3.org/TR/2001/REC-SVG-20010904/DTD/svg10.dtd">
<svg version="1.0" xmlns="http://www.w3.org/2000/svg"
 width="1634.000000pt" height="299.000000pt" viewBox="0 0 1634.000000 299.000000"
 preserveAspectRatio="xMidYMid meet">

<g transform="translate(0.000000,299.000000) scale(0.100000,-0.100000)"
fill="#000000" stroke="none">
<path d="M12567 2907 c-122 -43 -180 -126 -196 -281 -10 -98 0 -149 44 -236
31 -60 52 -78 130 -106 108 -39 285 -29 363 22 54 35 75 84 90 209 18 154 -10
250 -99 336 -54 53 -85 65 -194 74 -58 5 -82 2 -138 -18z m259 -48 c22 -17 46
-35 54 -39 12 -7 12 -11 3 -21 -10 -10 -14 -9 -19 4 -3 9 -11 17 -18 17 -6 0
-27 10 -46 22 -19 12 -43 21 -52 19 -10 -1 -27 3 -39 9 -22 12 -99 -2 -126
-23 -7 -5 -22 -7 -34 -4 -17 5 -20 2 -16 -14 4 -14 0 -19 -13 -19 -11 0 -22 5
-25 10 -3 6 -2 10 4 10 5 0 22 11 36 24 32 30 45 33 161 35 88 1 93 0 130 -30z
m-68 -40 c26 -7 56 -19 66 -28 35 -30 57 -98 68 -214 11 -106 10 -115 -10
-160 -17 -39 -29 -51 -66 -68 -59 -26 -199 -29 -225 -5 -10 9 -21 16 -25 16
-3 0 -22 15 -40 33 -24 25 -38 52 -50 99 -24 95 -21 154 10 217 32 63 102 115
144 107 14 -2 32 -1 40 5 19 12 32 11 88 -2z m170 -32 c6 -7 15 -24 21 -39 9
-23 7 -26 -15 -31 -22 -4 -25 -1 -21 15 3 11 3 18 0 15 -12 -13 -31 18 -22 36
11 20 23 22 37 4z m42 -108 c0 -19 -40 -53 -49 -42 -3 3 0 8 7 10 10 4 10 8 1
19 -6 8 -8 14 -3 15 5 0 0 4 -11 9 -15 6 -11 7 18 7 28 -1 37 -5 37 -18z m10
-53 c0 -16 -37 -29 -45 -16 -3 5 3 13 12 19 25 14 33 13 33 -3z m-565 -5 c3
-5 1 -12 -5 -16 -5 -3 -10 1 -10 9 0 18 6 21 15 7z m565 -76 c0 -33 -5 -47
-16 -52 -24 -9 -37 19 -17 35 14 10 14 12 2 12 -8 0 -15 9 -16 19 -1 17 9 25
40 30 4 0 7 -19 7 -44z m-560 -5 c0 -5 -4 -10 -10 -10 -5 0 -10 5 -10 10 0 6
5 10 10 10 6 0 10 -4 10 -10z m20 -30 c0 -5 -5 -10 -11 -10 -5 0 -7 5 -4 10 3
6 8 10 11 10 2 0 4 -4 4 -10z m520 -60 c0 -31 -25 -74 -60 -104 -48 -40 -53
-31 -9 13 24 26 37 46 33 55 -3 9 -1 16 6 16 6 0 8 5 5 10 -7 12 2 30 16 30 5
0 9 -9 9 -20z m-460 -96 c0 -14 -3 -14 -15 -4 -8 7 -15 14 -15 16 0 2 7 4 15
4 8 0 15 -7 15 -16z"/>
<path d="M13116 2883 l-39 -4 7 -82 c4 -45 17 -136 30 -202 21 -116 23 -120
49 -123 26 -3 27 -1 28 40 0 24 2 109 5 190 5 147 -2 190 -29 186 -7 -1 -30
-3 -51 -5z m41 -355 c-2 -13 -4 -5 -4 17 -1 22 1 32 4 23 2 -10 2 -28 0 -40z"/>
<path d="M12159 2876 c-2 -2 -80 -7 -173 -10 -93 -3 -170 -7 -171 -8 -9 -12
-24 -72 -19 -77 3 -3 48 -4 100 -3 l94 4 0 -34 c1 -81 37 -515 44 -526 4 -7
25 -11 49 -9 l42 2 -2 105 c-1 58 -10 178 -19 266 -9 89 -15 168 -12 176 6 14
66 32 146 44 49 8 56 15 48 50 -6 22 -11 24 -65 24 -32 0 -60 -2 -62 -4z m1
-36 c0 -5 -12 -10 -26 -10 -14 0 -23 4 -19 10 3 6 15 10 26 10 10 0 19 -4 19
-10z m53 3 c-7 -2 -19 -2 -25 0 -7 3 -2 5 12 5 14 0 19 -2 13 -5z m-328 -24
c-30 -12 -45 -10 -45 4 0 10 10 12 32 9 28 -4 30 -6 13 -13z m80 11 c-3 -5
-18 -10 -33 -9 -24 0 -25 1 -7 9 28 12 47 12 40 0z m50 0 c-3 -5 -10 -10 -16
-10 -5 0 -9 5 -9 10 0 6 7 10 16 10 8 0 12 -4 9 -10z m55 -4 c-6 -8 -18 -12
-26 -9 -9 3 -14 -2 -15 -13 0 -12 -3 -14 -6 -6 -7 18 16 42 39 42 17 0 18 -3
8 -14z m-14 -70 c2 -15 2 -15 -3 0 -4 14 -7 14 -14 3 -7 -11 -9 -10 -9 4 0 23
24 17 26 -7z m-9 -193 c-15 -16 -17 -16 -17 -1 0 9 6 18 13 21 20 7 22 -2 4
-20z m14 -36 c-8 -8 -11 -7 -11 4 0 20 13 34 18 19 3 -7 -1 -17 -7 -23z m-1
-32 c-7 -9 -15 -13 -17 -11 -7 7 7 26 19 26 6 0 6 -6 -2 -15z m10 -41 c-18
-21 -24 -10 -9 18 8 14 14 18 17 10 2 -7 -2 -19 -8 -28z m15 -43 c-3 -6 -11
-11 -17 -11 -6 0 -6 6 2 15 14 17 26 13 15 -4z m-17 -41 c-13 -21 -28 -27 -28
-10 0 5 8 14 18 19 23 14 24 14 10 -9z m17 -49 c6 -11 -15 -61 -27 -61 -10 0
-11 54 -1 63 9 10 21 9 28 -2z"/>
<path d="M11560 2838 c-51 -9 -81 -11 -198 -16 l-44 -2 7 -102 c4 -57 13 -139
21 -183 8 -44 17 -141 20 -215 4 -74 12 -141 17 -149 9 -10 34 -12 127 -5 63
5 153 8 200 9 l85 0 0 50 0 50 -68 3 c-39 2 -93 -3 -130 -12 -74 -19 -123 -20
-133 -5 -7 11 -23 181 -18 188 2 2 56 10 121 17 65 8 124 16 130 19 8 3 11 15
7 37 -10 52 -20 57 -94 47 -36 -5 -88 -11 -116 -15 l-51 -6 -6 59 c-4 33 -9
66 -12 74 -2 8 -1 20 4 28 11 18 107 39 212 47 l87 7 6 35 c3 19 3 39 0 44 -7
10 -102 8 -174 -4z m100 -28 c0 -5 -7 -10 -15 -10 -8 0 -15 5 -15 10 0 6 7 10
15 10 8 0 15 -4 15 -10z m-240 -40 c-41 -22 -54 -25 -44 -8 5 8 2 9 -9 5 -17
-6 -23 4 -10 16 3 4 27 7 52 7 l46 -1 -35 -19z m-30 -76 c0 -8 -5 -12 -10 -9
-6 4 -8 11 -5 16 9 14 15 11 15 -7z m10 -54 c0 -5 -5 -10 -11 -10 -5 0 -7 5
-4 10 3 6 8 10 11 10 2 0 4 -4 4 -10z m-2 -47 c-5 -25 -28 -28 -28 -4 0 12 6
21 16 21 9 0 14 -7 12 -17z m12 -33 c0 -5 -5 -10 -11 -10 -5 0 -7 5 -4 10 3 6
8 10 11 10 2 0 4 -4 4 -10z m-6 -45 c-4 -8 -10 -15 -15 -15 -5 0 -9 7 -9 15 0
8 7 15 15 15 9 0 12 -6 9 -15z m261 5 c3 -5 -3 -10 -14 -10 -12 0 -21 5 -21
10 0 6 6 10 14 10 8 0 18 -4 21 -10z m-129 -15 c-26 -19 -42 -19 -26 0 7 8 20
15 29 15 13 -1 13 -3 -3 -15z m44 5 c0 -5 -5 -10 -11 -10 -5 0 -7 5 -4 10 3 6
8 10 11 10 2 0 4 -4 4 -10z m-96 -10 c-6 -6 -21 -6 -39 -1 -30 9 -30 9 10 10
25 1 36 -2 29 -9z m-72 -192 c-9 -9 -12 -7 -12 12 0 19 3 21 12 12 9 -9 9 -15
0 -24z m298 -72 c0 -2 -11 -6 -25 -8 -13 -3 -22 -1 -19 3 5 9 44 13 44 5z m60
-3 c0 -10 -20 -40 -20 -31 0 3 -3 13 -6 22 -4 11 -1 16 10 16 9 0 16 -3 16 -7z
m-335 -24 c-10 -15 -25 -10 -19 6 4 8 10 12 15 9 5 -3 7 -10 4 -15z m290 11
c-3 -5 -12 -10 -18 -10 -7 0 -6 4 3 10 19 12 23 12 15 0z m-165 -10 c-20 -13
-33 -13 -25 0 3 6 14 10 23 10 15 0 15 -2 2 -10z"/>
<path d="M8503 2754 c-58 -36 -73 -50 -73 -70 0 -13 5 -24 11 -24 20 0 157 80
163 95 7 19 -3 45 -18 44 -6 0 -44 -21 -83 -45z"/>
<path d="M10917 2794 c-3 -3 -34 -6 -68 -6 -35 0 -74 -4 -87 -9 -27 -10 -27
-1 1 -164 23 -134 37 -288 37 -398 0 -109 5 -117 63 -100 31 9 32 10 32 68 0
33 -4 85 -8 115 -4 30 -4 61 1 67 4 7 29 16 54 19 45 6 48 5 87 -37 23 -24 61
-74 86 -110 62 -90 83 -109 118 -102 43 8 42 26 -2 84 -23 30 -54 79 -71 109
-41 75 -69 108 -79 91 -6 -9 -11 -8 -21 4 -10 12 -10 15 3 15 9 0 21 9 27 20
6 11 16 20 22 20 6 0 3 -9 -7 -20 -23 -25 -1 -28 34 -4 58 41 80 177 42 260
-29 64 -71 84 -173 84 -47 0 -87 -3 -91 -6z m136 -31 c-7 -2 -13 -11 -13 -19
0 -19 -29 -18 -36 1 -5 12 -10 13 -20 4 -15 -12 -44 -6 -44 10 0 5 28 9 63 9
34 0 56 -2 50 -5z m75 -16 c19 -15 45 -68 37 -75 -3 -4 -9 -1 -13 5 -4 6 -19
14 -34 18 -18 5 -25 12 -21 21 4 10 0 12 -11 8 -12 -5 -16 0 -16 21 0 23 3 25
23 19 12 -3 28 -11 35 -17z m-294 -2 c4 -12 2 -13 -12 -7 -9 5 -23 7 -29 5 -7
-3 -13 0 -13 6 0 17 47 13 54 -4z m87 0 c0 -5 -7 -12 -16 -13 -23 -5 -47 6
-40 19 8 13 56 8 56 -6z m124 -55 c15 -6 32 -24 40 -45 18 -42 19 -109 3 -123
-21 -17 -144 -44 -185 -40 l-38 3 -8 99 c-5 76 -4 102 5 108 18 11 152 10 183
-2z m-225 -73 c0 -24 -3 -28 -10 -17 -13 20 -13 63 0 55 6 -3 10 -21 10 -38z
m336 29 c17 -17 19 -72 3 -82 -6 -3 -15 0 -20 7 -5 9 -3 16 7 19 13 5 12 9 -5
24 -22 20 -28 46 -10 46 6 0 17 -6 25 -14z m-111 -196 c-3 -5 -11 -10 -16 -10
-6 0 -7 5 -4 10 3 6 11 10 16 10 6 0 7 -4 4 -10z m-62 -7 c-7 -2 -21 -2 -30 0
-10 3 -4 5 12 5 17 0 24 -2 18 -5z m-143 -62 c0 -6 -4 -13 -10 -16 -5 -3 -10
1 -10 9 0 9 5 16 10 16 6 0 10 -4 10 -9z m265 -11 c8 -13 -15 -13 -35 0 -12 8
-11 10 7 10 12 0 25 -4 28 -10z m30 -49 c3 -10 24 -47 46 -81 22 -34 37 -65
34 -68 -8 -9 -42 34 -61 76 -8 17 -19 32 -25 32 -5 0 -7 5 -4 10 3 6 1 10 -5
10 -6 0 -8 5 -4 11 3 6 0 15 -7 20 -11 7 -11 9 3 9 9 0 19 -9 23 -19z m-289
-6 c-3 -8 -1 -15 4 -15 6 0 10 -4 10 -10 0 -5 -4 -10 -9 -10 -12 0 -23 29 -15
41 9 15 17 10 10 -6z m9 -55 c-3 -5 -11 -10 -16 -10 -6 0 -7 5 -4 10 3 6 11
10 16 10 6 0 7 -4 4 -10z m15 -29 c0 -10 -7 -24 -15 -31 -13 -10 -15 -9 -15
12 0 14 3 28 7 31 12 13 23 7 23 -12z m-4 -68 c-5 -12 -10 -13 -18 -5 -8 8 -8
15 3 28 15 18 25 4 15 -23z"/>
<path d="M10420 2746 c-63 -16 -111 -48 -164 -107 -65 -72 -90 -142 -90 -254
0 -79 3 -96 27 -142 37 -72 77 -114 136 -146 71 -39 109 -38 330 11 39 9 57
46 41 88 l-9 23 -53 -24 c-40 -19 -70 -25 -123 -25 -174 0 -236 64 -234 244 1
121 27 174 107 215 72 37 128 46 199 31 73 -14 88 -8 77 35 -15 59 -127 83
-244 51z m190 -31 c0 -8 -4 -15 -10 -15 -5 0 -10 7 -10 15 0 8 5 15 10 15 6 0
10 -7 10 -15z m-191 -8 c-2 -1 -13 -9 -24 -17 -19 -14 -19 -14 -6 3 7 9 18 17
24 17 6 0 8 -1 6 -3z m-119 -87 c0 -13 -37 -50 -51 -50 -6 0 0 13 13 29 24 31
38 38 38 21z m-40 -94 c0 -3 -4 -8 -10 -11 -5 -3 -10 -1 -10 4 0 6 5 11 10 11
6 0 10 -2 10 -4z m-30 -40 c0 -3 -4 -8 -10 -11 -5 -3 -10 -1 -10 4 0 6 5 11
10 11 6 0 10 -2 10 -4z m15 -26 c-3 -5 -11 -10 -16 -10 -6 0 -7 5 -4 10 3 6
11 10 16 10 6 0 7 -4 4 -10z m-5 -38 c0 -4 -6 -14 -12 -21 -11 -10 -9 -11 7
-6 15 5 17 4 6 -3 -26 -18 -56 10 -34 31 9 10 33 9 33 -1z m-12 -68 c-9 -9
-21 -13 -27 -9 -16 10 -3 25 22 25 20 0 20 -1 5 -16z m20 -16 c-3 -7 -13 -15
-24 -17 -16 -3 -17 -1 -5 13 16 19 34 21 29 4z m-8 -43 c-7 -8 -16 -15 -21
-15 -5 0 -9 7 -9 15 0 9 9 15 21 15 18 0 19 -2 9 -15z m25 -26 c0 -18 37 -79
48 -79 4 0 6 -4 3 -9 -3 -5 27 -16 67 -25 128 -28 161 -30 221 -11 60 19 88
14 40 -7 -18 -7 -77 -12 -154 -12 -107 0 -132 3 -173 21 -37 17 -49 28 -53 52
-4 16 -12 32 -20 35 -15 6 -19 38 -7 50 10 10 28 1 28 -15z"/>
<path d="M9900 2708 c-51 -9 -82 -11 -199 -16 l-44 -2 7 -117 c4 -65 14 -152
22 -193 7 -41 17 -136 22 -210 l7 -135 75 1 c41 1 136 3 210 5 l135 4 3 29 c2
15 1 39 -3 53 -6 24 -7 24 -88 20 -45 -2 -117 -10 -160 -18 -64 -11 -80 -11
-86 0 -8 13 -22 183 -16 190 4 3 208 30 238 31 13 0 17 9 17 39 0 56 -12 61
-105 49 -44 -6 -98 -11 -120 -12 l-40 -1 -7 70 c-4 39 -6 75 -3 82 6 17 74 33
195 47 l105 12 3 42 3 42 -58 -1 c-32 -1 -83 -6 -113 -11z m95 -28 c-3 -5 -13
-10 -21 -10 -8 0 -12 5 -9 10 3 6 13 10 21 10 8 0 12 -4 9 -10z m-215 -25 c0
-5 -55 -35 -65 -35 -3 0 -3 5 1 12 5 8 2 9 -9 5 -11 -4 -17 -1 -17 8 0 11 12
15 45 15 25 0 45 -2 45 -5z m-50 -85 c0 -5 -8 -10 -17 -10 -15 0 -16 2 -3 10
19 12 20 12 20 0z m-10 -34 c0 -3 -4 -8 -10 -11 -5 -3 -10 -1 -10 4 0 6 5 11
10 11 6 0 10 -2 10 -4z m20 -26 c0 -5 -4 -10 -10 -10 -5 0 -10 5 -10 10 0 6 5
10 10 10 6 0 10 -4 10 -10z m0 -39 c0 -5 -7 -14 -15 -21 -13 -10 -15 -9 -15 9
0 12 6 21 15 21 8 0 15 -4 15 -9z m10 -41 c0 -5 -5 -10 -11 -10 -5 0 -7 5 -4
10 3 6 8 10 11 10 2 0 4 -4 4 -10z m250 -41 c0 -5 -7 -9 -15 -9 -15 0 -20 12
-9 23 8 8 24 -1 24 -14z m-250 7 c0 -2 -7 -9 -15 -16 -12 -10 -15 -10 -15 4 0
9 7 16 15 16 8 0 15 -2 15 -4z m126 -21 c-22 -17 -36 -19 -36 -7 0 14 12 22
34 22 21 -1 21 -1 2 -15z m44 5 c0 -5 -5 -10 -11 -10 -5 0 -7 5 -4 10 3 6 8
10 11 10 2 0 4 -4 4 -10z m-102 -10 c-10 -6 -25 -7 -40 -1 -20 9 -18 10 17 10
31 0 36 -2 23 -9z m-68 -60 c0 -5 -5 -10 -11 -10 -5 0 -7 5 -4 10 3 6 8 10 11
10 2 0 4 -4 4 -10z m-3 -132 c-3 -7 -5 -2 -5 12 0 14 2 19 5 13 2 -7 2 -19 0
-25z m301 -73 c-11 -11 -60 -16 -53 -5 3 5 18 10 32 10 15 0 24 -2 21 -5z m52
-9 c0 -8 -4 -18 -10 -21 -5 -3 -10 3 -10 14 0 12 5 21 10 21 6 0 10 -6 10 -14z
m-338 -18 c-7 -7 -12 -8 -12 -2 0 14 12 26 19 19 2 -3 -1 -11 -7 -17z m303 12
c-3 -5 -12 -10 -18 -10 -7 0 -6 4 3 10 19 12 23 12 15 0z m-165 -10 c-20 -13
-33 -13 -25 0 3 6 14 10 23 10 15 0 15 -2 2 -10z"/>
<path d="M9255 2661 c-132 -34 -198 -144 -149 -247 20 -42 41 -54 202 -109 70
-24 135 -47 145 -50 22 -9 47 -56 47 -88 0 -28 -31 -58 -80 -78 -52 -20 -180
-14 -230 11 l-40 20 -6 -27 c-4 -16 -11 -34 -17 -41 -7 -9 -3 -20 13 -37 22
-24 29 -25 142 -25 110 0 124 2 193 31 41 18 79 37 85 44 14 17 34 147 27 176
-14 55 -107 118 -174 119 -17 0 -55 11 -85 25 -29 14 -63 25 -74 25 -26 0 -84
51 -84 74 0 91 129 127 260 72 60 -25 66 -25 77 -10 13 18 8 91 -8 108 -11 12
-205 18 -244 7z m204 -27 c25 -5 31 -11 29 -28 -2 -11 -7 -20 -13 -18 -5 2 -9
10 -7 18 2 12 -4 14 -25 11 -15 -2 -50 2 -78 8 l-50 13 56 1 c31 0 71 -2 88
-5z m-249 -34 c-20 -13 -33 -13 -25 0 3 6 14 10 23 10 15 0 15 -2 2 -10z m-50
-45 c0 -8 -4 -15 -10 -15 -5 0 -7 7 -4 15 4 8 8 15 10 15 2 0 4 -7 4 -15z
m-20 -95 c0 -5 -4 -10 -10 -10 -5 0 -10 5 -10 10 0 6 5 10 10 10 6 0 10 -4 10
-10z m130 -84 c0 -3 -4 -8 -10 -11 -5 -3 -10 -1 -10 4 0 6 5 11 10 11 6 0 10
-2 10 -4z m190 -71 c0 -9 -6 -12 -15 -9 -8 4 -15 10 -15 15 0 5 7 9 15 9 8 0
15 -7 15 -15z m53 -22 c-7 -2 -19 -2 -25 0 -7 3 -2 5 12 5 14 0 19 -2 13 -5z
m37 -27 c0 -22 -13 -26 -33 -11 -14 10 -15 14 -5 18 24 10 38 7 38 -7z m18
-38 c-3 -7 -13 -15 -24 -17 -16 -3 -17 -1 -5 13 16 19 34 21 29 4z m-8 -46 c0
-5 -7 -17 -16 -28 -8 -10 -14 -14 -11 -9 2 6 7 18 10 28 7 17 17 23 17 9z
m-20 -65 c0 -21 -30 -43 -84 -61 -61 -20 -86 -20 -86 -2 0 10 19 16 66 21 56
6 67 11 76 31 12 26 28 32 28 11z m-350 -62 c-11 -13 -10 -14 6 -9 16 6 17 5
7 -7 -10 -9 -16 -10 -24 -2 -12 12 -4 33 13 33 6 0 6 -6 -2 -15z m87 -12 c-9
-9 -19 -14 -23 -11 -10 10 6 28 24 28 15 0 15 -1 -1 -17z m73 2 c0 -9 -9 -15
-25 -15 -24 0 -32 10 -18 23 12 13 43 7 43 -8z"/>
<path d="M8600 2608 c-51 -9 -82 -11 -199 -16 l-44 -2 7 -117 c4 -65 14 -152
22 -193 7 -41 17 -136 22 -210 l7 -135 75 1 c41 1 136 3 210 5 l135 4 3 29 c2
15 1 39 -3 53 -6 24 -7 24 -88 20 -45 -2 -117 -10 -160 -18 -64 -11 -80 -11
-86 0 -8 13 -22 183 -16 190 4 3 208 30 238 31 13 0 17 9 17 39 0 56 -12 61
-105 49 -44 -6 -98 -11 -120 -12 l-40 -1 -7 70 c-4 39 -6 75 -3 82 6 17 74 33
195 47 l105 12 3 42 3 42 -58 -1 c-32 -1 -83 -6 -113 -11z m95 -28 c-3 -5 -13
-10 -21 -10 -8 0 -12 5 -9 10 3 6 13 10 21 10 8 0 12 -4 9 -10z m-215 -25 c0
-5 -55 -35 -65 -35 -3 0 -3 5 1 12 5 8 2 9 -9 5 -11 -4 -17 -1 -17 8 0 11 12
15 45 15 25 0 45 -2 45 -5z m-50 -85 c0 -5 -8 -10 -17 -10 -15 0 -16 2 -3 10
19 12 20 12 20 0z m-10 -34 c0 -3 -4 -8 -10 -11 -5 -3 -10 -1 -10 4 0 6 5 11
10 11 6 0 10 -2 10 -4z m20 -26 c0 -5 -4 -10 -10 -10 -5 0 -10 5 -10 10 0 6 5
10 10 10 6 0 10 -4 10 -10z m0 -39 c0 -5 -7 -14 -15 -21 -13 -10 -15 -9 -15 9
0 12 6 21 15 21 8 0 15 -4 15 -9z m10 -41 c0 -5 -5 -10 -11 -10 -5 0 -7 5 -4
10 3 6 8 10 11 10 2 0 4 -4 4 -10z m250 -41 c0 -5 -7 -9 -15 -9 -15 0 -20 12
-9 23 8 8 24 -1 24 -14z m-250 7 c0 -2 -7 -9 -15 -16 -12 -10 -15 -10 -15 4 0
9 7 16 15 16 8 0 15 -2 15 -4z m126 -21 c-22 -17 -36 -19 -36 -7 0 14 12 22
34 22 21 -1 21 -1 2 -15z m44 5 c0 -5 -5 -10 -11 -10 -5 0 -7 5 -4 10 3 6 8
10 11 10 2 0 4 -4 4 -10z m-102 -10 c-10 -6 -25 -7 -40 -1 -20 9 -18 10 17 10
31 0 36 -2 23 -9z m-68 -60 c0 -5 -5 -10 -11 -10 -5 0 -7 5 -4 10 3 6 8 10 11
10 2 0 4 -4 4 -10z m-3 -132 c-3 -7 -5 -2 -5 12 0 14 2 19 5 13 2 -7 2 -19 0
-25z m301 -73 c-11 -11 -60 -16 -53 -5 3 5 18 10 32 10 15 0 24 -2 21 -5z m52
-9 c0 -8 -4 -18 -10 -21 -5 -3 -10 3 -10 14 0 12 5 21 10 21 6 0 10 -6 10 -14z
m-338 -18 c-7 -7 -12 -8 -12 -2 0 14 12 26 19 19 2 -3 -1 -11 -7 -17z m303 12
c-3 -5 -12 -10 -18 -10 -7 0 -6 4 3 10 19 12 23 12 15 0z m-165 -10 c-20 -13
-33 -13 -25 0 3 6 14 10 23 10 15 0 15 -2 2 -10z"/>
<path d="M5996 2563 c-80 -47 -93 -61 -82 -89 9 -24 170 62 174 95 6 42 -12
41 -92 -6z"/>
<path d="M7611 2521 c-64 -21 -136 -86 -163 -147 -10 -23 -22 -81 -27 -129
-10 -98 0 -151 44 -241 29 -59 55 -78 153 -114 53 -19 75 -22 145 -17 99 7
176 29 215 62 71 60 99 307 49 427 -19 45 -100 134 -141 155 -46 24 -208 27
-275 4z m226 -24 c29 -11 103 -70 103 -82 0 -8 -28 -6 -32 3 -6 15 -100 62
-124 62 -12 0 -25 4 -28 8 -6 10 -42 9 -52 -1 -4 -4 -20 -7 -36 -7 -15 0 -28
-4 -28 -10 0 -5 -14 -10 -31 -10 -23 0 -30 -4 -26 -15 7 -18 -9 -29 -30 -21
-14 6 -14 9 4 25 26 25 65 46 80 43 6 -1 14 2 18 8 8 14 143 12 182 -3z m39
-88 c29 -24 55 -104 65 -204 14 -125 8 -165 -32 -210 -37 -42 -111 -60 -206
-50 -54 6 -69 12 -100 41 -19 19 -39 34 -44 34 -14 0 -40 100 -46 172 -6 74 4
111 45 166 32 44 79 72 122 72 19 0 41 4 49 9 15 10 127 -13 147 -30z m102
-12 c6 -7 15 -25 21 -40 10 -26 9 -27 -20 -27 -28 0 -30 2 -18 18 7 9 9 14 5
10 -14 -12 -36 25 -24 39 13 16 23 16 36 0z m-431 -3 c-3 -3 -12 -4 -19 -1 -8
3 -5 6 6 6 11 1 17 -2 13 -5z m473 -104 c0 -16 -26 -40 -44 -40 -14 0 -4 19
12 23 12 3 9 5 -8 6 -24 2 -24 2 -6 16 27 21 46 19 46 -5z m10 -50 c0 -15 -7
-20 -27 -20 l-28 1 24 19 c29 25 31 25 31 0z m-560 -10 c0 -5 -4 -10 -10 -10
-5 0 -10 5 -10 10 0 6 5 10 10 10 6 0 10 -4 10 -10z m560 -70 c0 -28 -5 -42
-19 -49 -26 -15 -38 16 -14 35 15 11 15 13 2 8 -19 -6 -34 32 -15 40 35 14 46
6 46 -34z m-568 -12 c-7 -7 -12 -8 -12 -2 0 14 12 26 19 19 2 -3 -1 -11 -7
-17z m28 -28 c0 -5 -4 -10 -10 -10 -5 0 -10 5 -10 10 0 6 5 10 10 10 6 0 10
-4 10 -10z m497 -118 c-13 -21 -40 -46 -58 -56 l-34 -20 33 31 c17 17 32 36
32 42 0 6 7 11 16 11 13 0 14 3 4 15 -10 12 -9 16 5 21 13 5 14 9 3 15 -11 7
-10 11 2 19 26 17 24 -37 -3 -78z m-437 -32 c0 -5 -4 -10 -10 -10 -5 0 -10 5
-10 10 0 6 5 10 10 10 6 0 10 -4 10 -10z"/>
<path d="M7170 2498 c-69 -11 -139 -17 -209 -18 l-54 0 8 -122 c4 -68 13 -152
21 -188 7 -36 16 -127 20 -203 6 -108 10 -140 22 -144 8 -4 77 -2 153 3 77 5
153 6 170 3 17 -4 43 -4 57 0 23 6 27 13 30 49 3 37 0 43 -23 52 -38 14 -112
12 -169 -5 -27 -8 -71 -15 -97 -15 -56 0 -54 -3 -64 123 -3 42 -2 77 2 77 4 0
62 7 128 15 65 8 121 15 122 15 2 0 3 18 3 40 0 34 -3 40 -26 46 -14 4 -56 3
-92 -1 -37 -5 -85 -9 -107 -9 l-40 -1 -7 70 c-4 39 -6 75 -3 82 5 14 125 40
228 48 l77 7 0 44 0 44 -47 -1 c-27 -1 -73 -6 -103 -11z m73 -35 c-7 -2 -19
-2 -25 0 -7 3 -2 5 12 5 14 0 19 -2 13 -5z m-213 -18 c0 -5 -55 -35 -65 -35
-3 0 -3 4 0 10 3 6 -1 7 -9 4 -16 -6 -22 7 -9 19 7 8 83 10 83 2z m-50 -90 c0
-8 -7 -15 -16 -15 -14 0 -14 3 -4 15 7 8 14 15 16 15 2 0 4 -7 4 -15z m5 -64
c-3 -6 -11 -11 -17 -11 -6 0 -6 6 2 15 14 17 26 13 15 -4z m5 -35 c0 -16 -18
-31 -27 -22 -8 8 5 36 17 36 5 0 10 -6 10 -14z m10 -35 c0 -5 -7 -12 -16 -15
-14 -5 -15 -4 -4 9 14 17 20 19 20 6z m-6 -46 c-4 -8 -10 -15 -15 -15 -5 0 -9
7 -9 15 0 8 7 15 15 15 9 0 12 -6 9 -15z m251 5 c3 -5 -1 -10 -9 -10 -9 0 -16
5 -16 10 0 6 4 10 9 10 6 0 13 -4 16 -10z m-115 -15 c-7 -8 -19 -15 -27 -15
-13 0 -13 3 -3 15 7 8 19 15 27 15 13 0 13 -3 3 -15z m40 5 c0 -5 -5 -10 -11
-10 -5 0 -7 5 -4 10 3 6 8 10 11 10 2 0 4 -4 4 -10z m-98 -12 c-8 -8 -17 -8
-34 0 -22 10 -21 11 12 11 26 1 31 -2 22 -11z m-75 -190 c-3 -7 -5 -2 -5 12 0
14 2 19 5 13 2 -7 2 -19 0 -25z m303 -72 c0 -2 -7 -6 -15 -10 -8 -3 -15 -1
-15 4 0 6 7 10 15 10 8 0 15 -2 15 -4z m50 -16 c0 -11 -4 -20 -10 -20 -5 0
-10 9 -10 20 0 11 5 20 10 20 6 0 10 -9 10 -20z m-330 -9 c0 -6 -4 -13 -10
-16 -5 -3 -10 1 -10 9 0 9 5 16 10 16 6 0 10 -4 10 -9z m135 -1 c-3 -5 -13
-10 -21 -10 -8 0 -12 5 -9 10 3 6 13 10 21 10 8 0 12 -4 9 -10z"/>
<path d="M6490 2444 c-136 -16 -206 -26 -219 -34 -14 -7 -15 -25 -10 -126 19
-354 31 -510 39 -518 5 -5 20 -5 37 2 15 6 96 20 178 32 224 33 262 54 315
180 101 241 -83 493 -340 464z m3 -41 c-7 -2 -19 -2 -25 0 -7 3 -2 5 12 5 14
0 19 -2 13 -5z m77 -5 c0 -4 -9 -8 -20 -8 -11 0 -20 4 -20 8 0 4 9 8 20 8 11
0 20 -4 20 -8z m-228 -30 c-47 -21 -63 -18 -42 7 7 9 28 15 49 14 l36 -1 -43
-20z m323 11 c46 -13 115 -77 115 -108 0 -11 5 -21 10 -21 6 0 10 -11 10 -24
0 -13 5 -26 11 -28 15 -5 0 -38 -18 -38 -9 0 -12 6 -8 19 3 12 0 21 -10 25 -9
3 -14 10 -11 15 16 24 -68 127 -112 138 -14 3 -37 12 -51 19 l-26 14 25 0 c14
0 43 -5 65 -11z m-133 -20 c58 -13 128 -44 128 -59 0 -5 9 -12 20 -15 22 -7
52 -58 67 -115 6 -21 7 -63 2 -104 -7 -59 -14 -75 -41 -104 -18 -18 -46 -41
-62 -49 -34 -18 -162 -42 -222 -43 -38 0 -42 2 -48 30 -11 56 -27 433 -19 441
9 9 75 26 105 28 9 1 41 -4 70 -10z m-209 -106 c6 -9 2 -13 -10 -13 -14 0 -19
9 -21 41 -4 55 11 75 18 24 3 -22 9 -46 13 -52z m7 -42 c0 -6 -5 -13 -11 -17
-8 -4 -8 -9 0 -17 13 -13 15 -77 2 -77 -5 0 -12 19 -16 43 -3 23 -9 50 -11 60
-4 12 0 17 15 17 12 0 21 -4 21 -9z m490 -96 c-7 -8 -19 -15 -27 -15 -11 0
-11 4 -2 23 7 12 17 25 23 29 16 10 20 -20 6 -37z m-482 -156 l7 -114 70 0
c39 0 99 3 135 7 l65 8 -55 -15 c-30 -8 -94 -17 -141 -21 l-86 -7 -7 28 c-4
15 -9 77 -12 139 -4 82 -3 108 5 100 7 -6 15 -62 19 -125z m492 122 c0 -5 -7
-14 -15 -21 -12 -10 -13 -16 -4 -27 9 -10 9 -17 1 -25 -7 -7 -12 -20 -12 -29
0 -24 -27 -49 -52 -49 -17 0 -18 3 -8 15 7 8 17 12 23 8 6 -3 7 -1 3 6 -4 6
-3 17 2 24 6 7 13 33 17 60 6 37 11 47 26 47 11 0 19 -4 19 -9z m-75 -171 c3
-5 -7 -12 -22 -16 -15 -4 -37 -13 -48 -20 -11 -8 -29 -14 -40 -13 -18 0 -18 1
3 10 13 5 35 18 49 29 28 22 48 25 58 10z"/>
<path d="M6040 2411 c-33 -6 -35 -8 -34 -46 0 -22 10 -130 22 -240 12 -110 25
-240 29 -290 l8 -90 48 -6 c27 -3 50 -3 51 0 2 4 -1 51 -5 106 -20 255 -32
366 -46 443 -8 46 -12 91 -8 100 5 13 -11 34 -25 31 -3 -1 -21 -4 -40 -8z m30
-60 c0 -30 -14 -32 -27 -5 -10 21 -9 24 8 24 12 0 19 -7 19 -19z m-5 -51 c-3
-5 -11 -10 -16 -10 -6 0 -7 5 -4 10 3 6 11 10 16 10 6 0 7 -4 4 -10z m15 -20
c0 -5 -5 -10 -11 -10 -5 0 -7 5 -4 10 3 6 8 10 11 10 2 0 4 -4 4 -10z m6 -36
c-3 -9 -6 -20 -6 -25 0 -5 -7 -9 -15 -9 -15 0 -21 31 -8 43 13 14 35 7 29 -9z
m14 -43 c0 -12 -20 -25 -27 -18 -7 7 6 27 18 27 5 0 9 -4 9 -9z m0 -44 c0 -8
-9 -22 -20 -32 -20 -18 -20 -17 -20 8 0 23 10 34 33 36 4 1 7 -5 7 -12z m10
-52 c0 -9 -9 -15 -21 -15 -18 0 -19 2 -9 15 7 8 16 15 21 15 5 0 9 -7 9 -15z
m-12 -47 c-6 -18 -28 -21 -28 -4 0 9 7 16 16 16 9 0 14 -5 12 -12z m12 -33 c0
-8 -7 -15 -15 -15 -9 0 -12 6 -9 15 4 8 10 15 15 15 5 0 9 -7 9 -15z m-10 -40
c-7 -9 -15 -13 -17 -11 -7 7 7 26 19 26 6 0 6 -6 -2 -15z m11 -38 c-16 -16
-26 0 -10 19 9 11 15 12 17 4 2 -6 -1 -17 -7 -23z m4 -37 c-4 -11 -2 -20 4
-20 7 0 11 -23 11 -56 0 -52 -1 -55 -22 -52 -21 3 -23 9 -26 67 -2 45 1 67 10
72 22 14 30 10 23 -11z"/>
<path d="M5806 2391 c-29 -6 -30 -9 -83 -211 -68 -261 -94 -350 -105 -350 -10
0 -70 120 -132 262 -25 59 -60 132 -76 163 -17 32 -30 66 -30 77 0 17 -6 19
-47 16 -36 -2 -48 -7 -46 -18 2 -20 63 -156 89 -200 12 -19 32 -66 44 -105 12
-38 43 -108 69 -155 25 -47 52 -98 59 -115 16 -37 28 -45 72 -45 68 0 93 30
114 132 3 18 17 60 31 94 13 34 32 99 40 145 9 46 27 125 41 174 33 123 34
140 9 141 -11 1 -33 -1 -49 -5z m34 -40 c0 -5 -6 -16 -12 -23 -7 -7 -13 -20
-13 -28 0 -8 -8 -16 -17 -18 -11 -2 -16 1 -13 10 20 57 26 68 40 68 8 0 15 -4
15 -9z m-473 -79 c9 -20 19 -40 21 -44 2 -5 -4 -8 -13 -8 -9 0 -13 5 -10 11 4
6 0 16 -8 22 -19 15 -36 74 -18 63 6 -4 19 -24 28 -44z m453 -11 c0 -12 -20
-25 -27 -18 -7 7 6 27 18 27 5 0 9 -4 9 -9z m-35 -41 c-3 -5 -10 -10 -16 -10
-5 0 -9 5 -9 10 0 6 7 10 16 10 8 0 12 -4 9 -10z m-395 -20 c0 -5 -4 -10 -10
-10 -5 0 -10 5 -10 10 0 6 5 10 10 10 6 0 10 -4 10 -10z m406 -25 c-3 -9 -12
-12 -21 -9 -14 6 -14 9 2 26 18 20 30 10 19 -17z m-376 -14 c0 -9 5 -22 12
-29 6 -6 9 -15 5 -18 -9 -9 -39 24 -33 35 4 5 1 11 -6 13 -6 2 -8 10 -4 16 10
16 26 6 26 -17z m360 -16 c0 -2 -9 -9 -20 -15 -16 -9 -20 -8 -20 5 0 8 9 15
20 15 11 0 20 -2 20 -5z m0 -35 c0 -5 -7 -10 -16 -10 -8 0 -12 5 -9 10 3 6 10
10 16 10 5 0 9 -4 9 -10z m-319 -36 c12 -14 11 -16 -5 -13 -11 2 -21 10 -24
17 -5 17 13 15 29 -4z m278 -6 c-10 -6 -7 -7 9 -3 13 4 22 2 22 -4 0 -14 -37
-14 -45 -1 -9 14 4 32 17 24 6 -4 5 -10 -3 -16z m-261 -46 c4 -25 -13 -30 -22
-6 -9 25 -7 36 7 32 6 -3 13 -14 15 -26z m267 -2 c-3 -5 -13 -10 -21 -10 -8 0
-12 5 -9 10 3 6 13 10 21 10 8 0 12 -4 9 -10z m-239 -47 c-3 -3 -13 -3 -22 1
-13 5 -14 9 -3 22 11 14 13 14 22 -1 5 -9 6 -19 3 -22z m254 28 c0 -12 -26
-38 -51 -51 -15 -8 -19 -7 -19 5 0 8 7 15 16 15 8 0 13 4 9 9 -3 6 3 14 12 20
23 13 33 14 33 2z m-250 -57 c0 -8 5 -12 10 -9 6 3 10 -1 10 -9 0 -9 -9 -16
-20 -16 -11 0 -20 4 -20 9 0 5 -3 16 -6 25 -4 11 -1 16 10 16 9 0 16 -7 16
-16z m220 -19 c-7 -8 -17 -15 -23 -15 -5 0 -2 9 8 20 21 23 35 19 15 -5z
m-182 -53 c3 -9 -2 -13 -14 -10 -9 1 -19 9 -22 16 -3 9 2 13 14 10 9 -1 19 -9
22 -16z m33 -59 c7 -16 15 -31 17 -35 2 -5 -3 -8 -11 -8 -12 0 -20 12 -45 63
-2 4 3 7 11 7 7 0 20 -12 28 -27z m99 -17 c0 -2 -8 -10 -17 -17 -16 -13 -17
-12 -4 4 13 16 21 21 21 13z m-60 -41 c-7 -8 -17 -15 -22 -15 -6 0 -5 7 2 15
7 8 17 15 22 15 6 0 5 -7 -2 -15z"/>
<path d="M13150 2346 c0 -41 5 -45 48 -39 22 4 32 11 32 23 0 37 -12 50 -46
50 -32 0 -34 -2 -34 -34z"/>
<path d="M4860 2318 c-69 -11 -139 -17 -209 -18 l-54 0 8 -122 c4 -68 13 -152
21 -188 7 -36 16 -127 20 -203 6 -108 10 -140 22 -144 8 -4 77 -2 153 3 77 5
153 6 170 3 17 -4 43 -4 57 0 23 6 27 13 30 49 3 37 0 43 -23 52 -38 14 -112
12 -169 -5 -27 -8 -71 -15 -97 -15 -56 0 -54 -3 -64 123 -3 42 -2 77 2 77 4 0
62 7 128 15 65 8 121 15 122 15 2 0 3 18 3 40 0 34 -3 40 -26 46 -14 4 -56 3
-92 -1 -37 -5 -85 -9 -107 -9 l-40 -1 -7 70 c-4 39 -6 75 -3 82 5 14 125 40
228 48 l77 7 0 44 0 44 -47 -1 c-27 -1 -73 -6 -103 -11z m73 -35 c-7 -2 -19
-2 -25 0 -7 3 -2 5 12 5 14 0 19 -2 13 -5z m-213 -18 c0 -5 -55 -35 -65 -35
-3 0 -3 4 0 10 3 6 -1 7 -9 4 -16 -6 -22 7 -9 19 7 8 83 10 83 2z m-50 -90 c0
-8 -7 -15 -16 -15 -14 0 -14 3 -4 15 7 8 14 15 16 15 2 0 4 -7 4 -15z m5 -64
c-3 -6 -11 -11 -17 -11 -6 0 -6 6 2 15 14 17 26 13 15 -4z m5 -35 c0 -16 -18
-31 -27 -22 -8 8 5 36 17 36 5 0 10 -6 10 -14z m10 -35 c0 -5 -7 -12 -16 -15
-14 -5 -15 -4 -4 9 14 17 20 19 20 6z m-6 -46 c-4 -8 -10 -15 -15 -15 -5 0 -9
7 -9 15 0 8 7 15 15 15 9 0 12 -6 9 -15z m251 5 c3 -5 -1 -10 -9 -10 -9 0 -16
5 -16 10 0 6 4 10 9 10 6 0 13 -4 16 -10z m-115 -15 c-7 -8 -19 -15 -27 -15
-13 0 -13 3 -3 15 7 8 19 15 27 15 13 0 13 -3 3 -15z m40 5 c0 -5 -5 -10 -11
-10 -5 0 -7 5 -4 10 3 6 8 10 11 10 2 0 4 -4 4 -10z m-98 -12 c-8 -8 -17 -8
-34 0 -22 10 -21 11 12 11 26 1 31 -2 22 -11z m-75 -190 c-3 -7 -5 -2 -5 12 0
14 2 19 5 13 2 -7 2 -19 0 -25z m303 -72 c0 -2 -7 -6 -15 -10 -8 -3 -15 -1
-15 4 0 6 7 10 15 10 8 0 15 -2 15 -4z m50 -16 c0 -11 -4 -20 -10 -20 -5 0
-10 9 -10 20 0 11 5 20 10 20 6 0 10 -9 10 -20z m-330 -9 c0 -6 -4 -13 -10
-16 -5 -3 -10 1 -10 9 0 9 5 16 10 16 6 0 10 -4 10 -9z m135 -1 c-3 -5 -13
-10 -21 -10 -8 0 -12 5 -9 10 3 6 13 10 21 10 8 0 12 -4 9 -10z"/>
<path d="M4215 2274 c-87 -23 -142 -60 -171 -115 -30 -59 -7 -161 43 -187 10
-6 87 -33 171 -62 132 -46 155 -57 168 -81 32 -63 14 -100 -63 -129 -70 -26
-160 -25 -216 3 -43 21 -67 17 -67 -11 0 -10 -5 -23 -11 -29 -16 -16 6 -51 39
-60 15 -4 74 -7 132 -7 92 0 113 3 170 28 86 37 95 47 109 113 18 90 15 118
-19 157 -37 41 -80 63 -145 72 -27 3 -65 15 -84 25 -20 10 -45 19 -57 19 -31
0 -87 41 -98 72 -19 55 48 108 138 108 25 0 76 -11 113 -25 64 -24 68 -25 80
-8 15 19 8 80 -11 101 -13 13 -184 25 -221 16z m169 -30 c35 -5 46 -11 46 -25
0 -10 -4 -21 -10 -24 -5 -3 -10 2 -10 13 0 15 -7 19 -37 19 -49 0 -101 8 -110
16 -8 9 60 9 121 1z m-234 -34 c-8 -5 -19 -10 -25 -10 -5 0 -3 5 5 10 8 5 20
10 25 10 6 0 3 -5 -5 -10z m-50 -50 c0 -5 -5 -10 -11 -10 -5 0 -7 5 -4 10 3 6
8 10 11 10 2 0 4 -4 4 -10z m-20 -90 c0 -5 -5 -10 -11 -10 -5 0 -7 5 -4 10 3
6 8 10 11 10 2 0 4 -4 4 -10z m317 -166 c-9 -9 -28 6 -21 18 4 6 10 6 17 -1 6
-6 8 -13 4 -17z m56 -11 c-7 -2 -19 -2 -25 0 -7 3 -2 5 12 5 14 0 19 -2 13 -5z
m37 -38 c0 -7 -7 -16 -16 -19 -8 -3 -13 -2 -9 3 3 5 -1 12 -7 14 -10 4 -10 8
2 16 16 11 30 6 30 -14z m18 -27 c-3 -7 -13 -15 -24 -17 -16 -3 -17 -1 -5 13
16 19 34 21 29 4z m-18 -68 c-6 -11 -12 -20 -14 -20 -2 0 -2 9 1 20 3 11 9 20
15 20 5 0 4 -9 -2 -20z m-10 -43 c0 -22 -31 -44 -93 -67 -43 -16 -62 -19 -70
-11 -18 18 4 30 63 35 47 3 57 8 70 30 16 28 30 34 30 13z m-351 -64 c-12 -15
-12 -16 6 -9 16 6 18 5 8 -5 -10 -10 -16 -10 -24 -2 -12 12 -4 33 13 33 6 0 5
-7 -3 -17z m51 3 c0 -3 -4 -8 -10 -11 -5 -3 -10 -1 -10 4 0 6 5 11 10 11 6 0
10 -2 10 -4z m50 -6 c0 -12 -28 -25 -36 -17 -9 9 6 27 22 27 8 0 14 -5 14 -10z
m58 -8 c2 -7 -7 -12 -22 -12 -27 0 -35 15 -13 23 17 7 30 3 35 -11z"/>
<path d="M3645 2225 c-87 -20 -126 -48 -159 -112 -30 -59 -12 -146 36 -177 12
-8 86 -37 163 -64 182 -65 171 -59 184 -88 16 -37 13 -79 -7 -97 -47 -43 -202
-63 -260 -33 -59 30 -70 29 -77 -3 -4 -17 -10 -33 -15 -36 -15 -9 1 -35 31
-50 46 -24 241 -15 298 13 25 12 50 22 57 22 6 0 21 8 33 18 28 23 55 150 40
189 -22 59 -99 113 -161 113 -18 0 -57 11 -86 25 -30 14 -61 25 -70 25 -26 0
-81 38 -93 63 -17 37 4 75 53 97 58 26 116 25 190 -5 34 -14 67 -25 74 -25 28
0 33 78 7 108 -15 16 -34 21 -103 25 -47 2 -107 -1 -135 -8z m217 -31 c12 -7
10 -44 -2 -44 -5 0 -10 9 -10 19 0 17 -6 19 -50 16 -27 -2 -52 0 -55 5 -3 4
-14 6 -25 3 -12 -3 -20 0 -20 7 0 10 18 11 77 6 42 -4 80 -9 85 -12z m-267
-24 c-3 -5 -12 -10 -18 -10 -7 0 -6 4 3 10 19 12 23 12 15 0z m-53 -52 c-7 -7
-12 -8 -12 -2 0 14 12 26 19 19 2 -3 -1 -11 -7 -17z m-22 -58 c0 -5 -2 -10 -4
-10 -3 0 -8 5 -11 10 -3 6 -1 10 4 10 6 0 11 -4 11 -10z m60 -94 c0 -3 -4 -8
-10 -11 -5 -3 -10 -1 -10 4 0 6 5 11 10 11 6 0 10 -2 10 -4z m67 -32 c-3 -3
-12 -4 -19 -1 -8 3 -5 6 6 6 11 1 17 -2 13 -5z m40 -10 c-3 -3 -12 -4 -19 -1
-8 3 -5 6 6 6 11 1 17 -2 13 -5z m163 -54 c0 -5 -6 -10 -14 -10 -8 0 -18 5
-21 10 -3 6 3 10 14 10 12 0 21 -4 21 -10z m90 -48 c0 -4 -6 -14 -12 -21 -11
-10 -9 -11 6 -5 14 5 17 3 15 -11 -6 -28 -26 -29 -33 0 -4 14 -11 25 -16 25
-6 0 -10 5 -10 10 0 6 11 10 25 10 14 0 25 -4 25 -8z m-4 -98 c-3 -9 -6 -18
-6 -20 0 -2 -4 -4 -9 -4 -5 0 -7 9 -4 20 3 11 10 20 15 20 6 0 7 -7 4 -16z
m-18 -61 c-4 -21 -70 -56 -108 -57 -16 -1 -26 -5 -23 -9 3 -5 -3 -7 -12 -5
-10 1 -20 8 -22 15 -4 12 75 29 109 24 11 -1 23 8 30 23 13 29 31 35 26 9z
m-333 -43 c-3 -5 -10 -10 -16 -10 -5 0 -9 5 -9 10 0 6 7 10 16 10 8 0 12 -4 9
-10z m28 -15 c-3 -9 -8 -14 -10 -11 -3 3 -2 9 2 15 9 16 15 13 8 -4z m52 -4
c-8 -13 -35 -15 -35 -2 0 5 8 11 18 13 21 5 26 2 17 -11z m-75 -1 c0 -5 -8
-10 -17 -10 -15 0 -16 2 -3 10 19 12 20 12 20 0z m150 1 c0 -5 -11 -11 -25
-13 -17 -4 -25 -1 -25 8 0 8 11 14 25 14 14 0 25 -4 25 -9z"/>
<path d="M3205 2189 c-33 -5 -100 -11 -149 -14 -50 -3 -91 -7 -92 -8 -3 -3 24
-276 35 -357 6 -41 14 -124 19 -185 l7 -110 75 1 c358 6 340 4 347 32 3 13 2
37 -3 51 -9 25 -12 26 -89 25 -44 0 -115 -7 -158 -14 -48 -9 -80 -10 -86 -4
-5 5 -12 50 -16 101 -8 107 -23 95 139 113 54 6 103 13 107 16 5 3 9 19 9 36
0 36 -25 58 -60 53 -140 -22 -193 -26 -200 -19 -4 5 -11 43 -15 85 l-6 76 43
12 c24 7 93 18 153 24 l110 13 3 42 3 42 -58 -1 c-32 -1 -85 -5 -118 -10z
m100 -29 c-3 -5 -13 -10 -21 -10 -8 0 -12 5 -9 10 3 6 13 10 21 10 8 0 12 -4
9 -10z m-244 -42 c-24 -16 -36 -19 -39 -10 -2 7 -8 10 -13 6 -5 -3 -9 2 -9 10
0 12 11 16 48 16 l47 0 -34 -22z m-31 -68 c0 -5 -5 -10 -11 -10 -5 0 -7 5 -4
10 3 6 8 10 11 10 2 0 4 -4 4 -10z m20 -60 c0 -5 -7 -10 -16 -10 -8 0 -12 5
-9 10 3 6 10 10 16 10 5 0 9 -4 9 -10z m0 -39 c0 -5 -7 -14 -15 -21 -13 -10
-15 -9 -15 9 0 12 6 21 15 21 8 0 15 -4 15 -9z m5 -41 c-3 -5 -11 -10 -16 -10
-6 0 -7 5 -4 10 3 6 11 10 16 10 6 0 7 -4 4 -10z m249 -35 c4 -10 -1 -15 -16
-15 -17 0 -18 2 -8 15 7 8 14 15 15 15 2 0 5 -7 9 -15z m-244 1 c0 -2 -7 -9
-15 -16 -12 -10 -15 -10 -15 4 0 9 7 16 15 16 8 0 15 -2 15 -4z m166 -23 c-10
-10 -19 5 -10 18 6 11 8 11 12 0 2 -7 1 -15 -2 -18z m-49 0 c-9 -9 -19 -14
-23 -11 -10 10 6 28 24 28 15 0 15 -1 -1 -17z m-53 -3 c-7 -7 -19 -7 -35 -1
-23 9 -22 10 11 10 23 1 31 -2 24 -9z m-67 -192 c-3 -7 -5 -2 -5 12 0 14 2 19
5 13 2 -7 2 -19 0 -25z m278 -78 c-28 -12 -37 -12 -30 0 3 6 16 10 28 9 21 0
21 -1 2 -9z m75 -4 c0 -8 -4 -18 -10 -21 -5 -3 -10 3 -10 14 0 12 5 21 10 21
6 0 10 -6 10 -14z m-335 -5 c3 -5 1 -12 -5 -16 -5 -3 -10 1 -10 9 0 18 6 21
15 7z m300 -1 c-3 -5 -12 -10 -18 -10 -7 0 -6 4 3 10 19 12 23 12 15 0z m-165
-10 c-8 -5 -22 -10 -30 -10 -13 0 -13 1 0 10 8 5 22 10 30 10 13 0 13 -1 0
-10z"/>
<path d="M10953 1385 c-39 -7 -106 -13 -149 -14 -43 -1 -81 -4 -85 -9 -7 -8
14 -255 29 -347 6 -33 14 -113 17 -178 6 -92 10 -120 22 -124 9 -3 78 -2 155
3 76 5 149 6 161 3 13 -3 37 -4 55 -1 37 5 51 37 36 81 -9 23 -15 26 -69 29
-33 1 -87 -5 -120 -14 -33 -8 -80 -14 -105 -12 l-45 3 -9 93 c-4 51 -6 95 -4
97 3 3 236 35 255 35 2 0 3 18 3 40 0 34 -3 40 -26 46 -14 4 -50 4 -80 0 -30
-3 -78 -9 -107 -12 l-54 -6 -7 82 c-4 45 -5 84 -3 86 8 8 156 33 230 39 l78 7
-3 41 -3 42 -50 2 c-27 1 -82 -4 -122 -12z m100 -32 c-7 -2 -19 -2 -25 0 -7 3
-2 5 12 5 14 0 19 -2 13 -5z m-213 -18 c0 -2 -14 -12 -32 -21 -22 -12 -33 -13
-36 -5 -2 6 -8 9 -13 5 -5 -3 -9 2 -9 10 0 12 11 16 45 16 25 0 45 -2 45 -5z
m-60 -95 c0 -5 -4 -10 -10 -10 -5 0 -10 5 -10 10 0 6 5 10 10 10 6 0 10 -4 10
-10z m0 -24 c0 -3 -4 -8 -10 -11 -5 -3 -10 -1 -10 4 0 6 5 11 10 11 6 0 10 -2
10 -4z m18 -28 c-2 -6 -10 -14 -16 -16 -7 -2 -10 2 -6 12 7 18 28 22 22 4z m2
-37 c0 -5 -7 -14 -15 -21 -13 -10 -15 -9 -15 9 0 12 6 21 15 21 8 0 15 -4 15
-9z m0 -45 c0 -3 -4 -8 -10 -11 -5 -3 -10 -1 -10 4 0 6 5 11 10 11 6 0 10 -2
10 -4z m10 -30 c0 -2 -7 -9 -15 -16 -12 -10 -15 -10 -15 4 0 9 7 16 15 16 8 0
15 -2 15 -4z m245 -6 c3 -5 -3 -10 -15 -10 -12 0 -18 5 -15 10 3 6 10 10 15
10 5 0 12 -4 15 -10z m-119 -15 c-23 -17 -36 -19 -36 -6 0 11 18 19 40 20 11
0 10 -3 -4 -14z m44 6 c0 -5 -7 -12 -16 -15 -14 -5 -15 -4 -4 9 14 17 20 19
20 6z m-97 -12 c-8 -8 -19 -8 -40 -1 -28 10 -28 10 12 11 28 1 36 -2 28 -10z
m-76 -191 c-3 -7 -5 -2 -5 12 0 14 2 19 5 13 2 -7 2 -19 0 -25z m303 -72 c0
-2 -7 -6 -15 -10 -8 -3 -15 -1 -15 4 0 6 7 10 15 10 8 0 15 -2 15 -4z m50 -10
c0 -8 -4 -18 -10 -21 -5 -3 -10 3 -10 14 0 12 5 21 10 21 6 0 10 -6 10 -14z
m-330 -10 c0 -3 -4 -8 -10 -11 -5 -3 -10 -1 -10 4 0 6 5 11 10 11 6 0 10 -2
10 -4z m135 -6 c-3 -5 -16 -10 -28 -10 -18 0 -19 2 -7 10 20 13 43 13 35 0z"/>
<path d="M10504 1326 c-3 -13 2 -84 10 -159 21 -183 20 -271 -3 -322 -37 -78
-39 -80 -136 -77 -53 2 -98 8 -116 17 -60 32 -99 117 -105 230 -1 33 -8 74
-14 90 -6 17 -10 70 -9 120 l3 90 -44 0 c-54 0 -52 20 -20 -235 11 -96 23
-194 26 -217 6 -48 46 -108 100 -149 37 -28 41 -29 158 -29 109 0 126 3 171
25 97 48 116 137 90 425 -8 99 -18 188 -21 198 -4 12 -16 17 -44 17 -33 0 -41
-4 -46 -24z m77 -49 c1 -18 0 -39 -1 -47 -2 -18 -31 -52 -38 -45 -3 3 3 14 13
25 11 12 13 20 6 20 -9 0 -9 5 0 22 9 17 9 24 -2 32 -8 6 -15 19 -15 28 -1 14
2 16 17 7 12 -6 19 -21 20 -42z m-477 -36 c10 -75 -5 -97 -20 -31 -17 71 -17
80 0 80 9 0 16 -17 20 -49z m481 -61 c-3 -5 -11 -10 -16 -10 -6 0 -7 5 -4 10
3 6 11 10 16 10 6 0 7 -4 4 -10z m-471 -83 c-8 -22 -8 -22 -14 3 -4 14 -4 31
-2 39 9 24 24 -17 16 -42z m466 43 c0 -5 -8 -10 -17 -10 -15 0 -16 2 -3 10 19
12 20 12 20 0z m-3 -87 c-10 -10 -17 -12 -21 -4 -4 6 -2 11 5 11 10 0 10 3 1
12 -9 9 -8 16 6 31 17 19 17 19 20 -8 2 -15 -3 -34 -11 -42z m-444 -66 c3 -61
1 -87 -7 -84 -6 2 -12 17 -13 33 -2 16 -4 49 -7 74 -3 38 9 79 20 67 2 -1 5
-42 7 -90z m467 38 c0 -8 -9 -15 -20 -15 -22 0 -27 15 -7 23 21 9 27 7 27 -8z
m0 -54 c0 -10 -9 -29 -20 -42 -16 -20 -19 -21 -20 -6 0 9 4 17 9 17 12 0 9 33
-4 42 -5 4 0 8 13 8 15 0 22 -6 22 -19z m0 -71 c0 -14 -7 -20 -22 -20 -20 0
-21 1 -3 20 10 11 20 20 22 20 1 0 3 -9 3 -20z m-450 -33 c0 -8 11 -24 25 -37
13 -12 22 -27 19 -31 -3 -5 0 -9 5 -9 6 0 11 -7 11 -15 0 -8 7 -15 15 -15 8 0
15 -4 15 -10 0 -5 -11 -10 -24 -10 -28 0 -71 52 -62 75 3 9 0 15 -8 15 -13 0
-26 20 -26 41 0 5 7 9 15 9 8 0 15 -6 15 -13z m450 -17 c0 -5 -12 -10 -27 -10
-22 0 -25 2 -13 10 20 13 40 13 40 0z m-15 -40 c-3 -5 -12 -10 -20 -10 -8 0
-17 5 -20 10 -4 6 5 10 20 10 15 0 24 -4 20 -10z m-15 -29 c0 -15 -16 -22 -34
-15 -25 9 -19 24 9 24 14 0 25 -4 25 -9z m-40 -36 c0 -13 -66 -36 -93 -32 -17
2 -49 0 -71 -5 -48 -11 -119 -1 -113 15 2 7 15 11 28 10 76 -7 174 -1 185 10
8 8 64 10 64 2z"/>
<path d="M9710 1300 c-129 -23 -205 -65 -257 -142 -40 -61 -52 -159 -32 -281
10 -70 19 -91 56 -144 24 -35 50 -63 57 -63 7 0 35 -16 62 -35 43 -31 56 -35
109 -35 33 1 80 5 105 11 25 5 62 12 83 14 49 6 76 21 86 48 4 12 3 81 -3 152
l-11 130 -85 -3 c-47 -2 -88 -6 -92 -9 -12 -7 -9 -58 5 -75 6 -9 25 -18 42
-20 33 -3 42 -24 44 -99 l1 -47 -74 -7 c-82 -7 -157 1 -197 21 -51 26 -97 164
-85 256 15 107 60 169 155 210 40 17 59 19 149 13 l102 -7 0 34 c0 48 -10 57
-71 69 -91 17 -102 18 -149 9z m-73 -67 c-3 -3 -11 -2 -17 2 -9 6 -9 10 1 16
14 8 27 -7 16 -18z m98 17 c3 -5 1 -10 -4 -10 -6 0 -11 5 -11 10 0 6 2 10 4
10 3 0 8 -4 11 -10z m-74 -33 c-8 -8 -11 -7 -11 4 0 20 13 34 18 19 3 -7 -1
-17 -7 -23z m234 23 c3 -5 -1 -10 -10 -10 -9 0 -13 5 -10 10 3 6 8 10 10 10 2
0 7 -4 10 -10z m-305 -31 c0 -6 -5 -7 -11 -3 -8 4 -9 -1 -4 -16 5 -15 3 -20
-3 -16 -6 3 -14 -3 -17 -15 -5 -14 -13 -19 -25 -16 -17 4 -22 -14 -8 -29 11
-11 -3 -33 -18 -27 -10 3 -12 0 -9 -10 4 -8 -1 -21 -9 -29 -11 -12 -12 -18 -3
-27 9 -10 5 -12 -18 -9 -25 3 -30 7 -27 28 5 41 46 114 67 120 11 3 20 12 20
20 0 8 8 14 17 14 10 -1 20 7 23 17 6 19 25 17 25 -2z m35 2 c3 -5 1 -12 -5
-16 -5 -3 -10 1 -10 9 0 18 6 21 15 7z m-135 -246 c0 -8 -6 -16 -12 -18 -10
-4 -9 -8 2 -16 9 -6 15 -28 16 -54 2 -57 54 -156 94 -179 32 -18 40 -38 16
-38 -19 0 -98 67 -123 105 -27 39 -38 102 -22 121 9 11 8 14 -4 14 -8 0 -17
13 -21 31 -9 48 -8 57 12 61 20 5 42 -9 42 -27z m356 -60 c-25 -19 -37 -19
-30 0 4 8 16 15 28 15 21 -1 21 -1 2 -15z m94 -33 c0 -27 -6 -56 -13 -67 -13
-17 -14 -17 -12 3 1 12 4 25 8 28 13 14 7 33 -9 27 -12 -4 -14 0 -8 22 6 25 5
26 -14 16 -18 -10 -21 -9 -16 4 4 9 18 15 35 15 28 0 29 -2 29 -48z m-5 -101
c-3 -6 -11 -11 -16 -11 -5 0 -4 6 3 14 14 16 24 13 13 -3z m15 -21 c0 -5 -8
-10 -17 -10 -15 0 -16 2 -3 10 19 12 20 12 20 0z m0 -45 c0 -9 -6 -12 -16 -8
-13 5 -13 7 -2 14 17 11 18 11 18 -6z m-17 -32 c-7 -2 -19 -2 -25 0 -7 3 -2 5
12 5 14 0 19 -2 13 -5z m-268 -23 c-3 -5 -13 -10 -21 -10 -8 0 -14 5 -14 10 0
6 9 10 21 10 11 0 17 -4 14 -10z m40 0 c-3 -5 -10 -10 -16 -10 -5 0 -9 5 -9
10 0 6 7 10 16 10 8 0 12 -4 9 -10z m45 0 c0 -5 -7 -10 -15 -10 -8 0 -15 5
-15 10 0 6 7 10 15 10 8 0 15 -4 15 -10z m65 0 c-22 -5 -44 -4 -49 1 -6 5 10
9 40 8 l49 -1 -40 -8z"/>
<path d="M8955 1229 c-7 -10 8 -169 26 -287 5 -34 9 -104 8 -155 -1 -111 8
-182 27 -198 18 -14 212 -13 269 2 22 6 56 14 75 17 37 8 46 25 36 67 -5 21
-9 22 -43 14 -21 -5 -86 -11 -145 -13 -101 -3 -107 -3 -113 18 -4 11 -10 122
-15 246 -4 124 -13 242 -19 263 -11 35 -14 37 -56 37 -24 0 -47 -5 -50 -11z
m79 -35 c11 -30 6 -75 -9 -81 -23 -8 -30 4 -17 32 10 21 9 25 -3 25 -8 0 -15
9 -15 20 0 24 35 28 44 4z m5 -136 c-5 -17 -13 -36 -19 -42 -15 -15 -25 1 -11
18 7 8 10 20 6 26 -8 13 3 30 20 30 11 0 12 -7 4 -32z m11 -58 c0 -11 -7 -20
-15 -20 -18 0 -19 12 -3 28 16 16 18 15 18 -8z m0 -60 c0 -5 -5 -10 -11 -10
-5 0 -7 5 -4 10 3 6 8 10 11 10 2 0 4 -4 4 -10z m10 -89 c0 -22 -6 -44 -15
-51 -21 -18 -29 -6 -15 20 10 18 9 24 -1 31 -10 6 -10 10 0 23 22 26 31 19 31
-23z m0 -78 c0 -5 -4 -14 -9 -22 -6 -8 -6 -24 0 -38 5 -15 5 -23 -2 -23 -6 0
-6 -8 1 -21 7 -11 9 -23 6 -26 -11 -11 -25 10 -36 57 -10 40 -9 54 0 65 13 16
40 21 40 8z m168 -134 c-2 -7 -17 -13 -32 -15 -31 -3 -24 11 9 19 11 3 22 5
23 6 2 0 2 -4 0 -10z m130 5 c-4 -3 -31 -9 -62 -13 -31 -4 -53 -4 -49 0 8 7
46 15 92 18 13 0 22 -2 19 -5z m-216 -15 c-11 -10 -102 -18 -102 -9 0 5 6 10
12 12 20 7 98 4 90 -3z"/>
<path d="M8747 1203 c-11 -10 -8 -89 9 -241 19 -164 12 -229 -31 -294 -25 -37
-26 -38 -88 -38 -97 1 -145 14 -181 49 -38 37 -66 119 -66 197 0 30 -5 64 -11
75 -5 11 -11 68 -12 127 l-2 107 -39 -2 c-22 -2 -41 -5 -44 -8 -9 -9 48 -447
64 -492 19 -53 100 -128 146 -136 18 -3 67 -4 108 -2 212 8 255 51 255 250 0
116 -11 313 -21 377 -6 36 -8 38 -44 38 -20 0 -40 -3 -43 -7z m68 -64 c7 -42
-13 -89 -38 -89 -7 0 -4 7 7 15 10 7 15 18 12 24 -4 6 -2 20 4 31 9 17 8 22
-7 28 -24 10 -26 41 -2 35 11 -3 20 -19 24 -44z m-473 -26 c2 -46 -1 -75 -7
-82 -9 -8 -12 3 -19 62 -5 47 -4 57 9 57 10 0 15 -11 17 -37z m474 -80 c-10
-10 -19 5 -10 18 6 11 8 11 12 0 2 -7 1 -15 -2 -18z m-466 -61 c0 -21 -2 -24
-10 -12 -13 20 -13 53 0 45 6 -3 10 -18 10 -33z m465 28 c-3 -5 -11 -10 -16
-10 -6 0 -7 5 -4 10 3 6 11 10 16 10 6 0 7 -4 4 -10z m15 -43 c0 -21 -16 -47
-30 -47 -9 0 -6 43 3 58 13 19 27 14 27 -11z m-462 -120 c6 -53 5 -76 -2 -74
-12 4 -23 60 -22 107 1 16 -3 30 -7 30 -4 0 -2 10 5 23 14 26 15 25 26 -86z
m462 48 c0 -9 -9 -15 -21 -15 -18 0 -19 2 -9 15 7 8 16 15 21 15 5 0 9 -7 9
-15z m10 -40 c0 -2 -5 -16 -10 -30 -7 -17 -7 -33 0 -45 7 -14 5 -19 -10 -23
-23 -6 -26 3 -8 21 9 9 8 12 -5 12 -9 0 -17 5 -17 10 0 6 4 10 9 10 5 0 8 10
7 23 -2 16 3 23 16 24 10 1 18 0 18 -2z m-440 -137 c16 -18 28 -39 25 -45 -2
-7 0 -13 5 -13 6 0 10 -7 10 -15 0 -8 9 -15 21 -15 11 0 17 -4 14 -10 -12 -19
-43 -10 -69 21 -21 24 -24 34 -15 45 9 11 8 14 -4 14 -14 0 -37 28 -37 44 0
15 23 3 50 -26z m432 0 c-9 -9 -15 -9 -24 0 -9 9 -7 12 12 12 19 0 21 -3 12
-12z m-12 -26 c0 -15 -11 -21 -27 -15 -12 5 -12 7 -1 14 17 11 28 11 28 1z
m-10 -42 c0 -5 -14 -10 -31 -10 -17 0 -28 4 -24 10 3 6 17 10 31 10 13 0 24
-4 24 -10z m-47 -30 c7 -1 0 -7 -14 -15 -32 -17 -260 -26 -256 -10 1 6 11 9
22 9 91 -7 164 -1 190 14 11 6 26 9 33 7 8 -3 19 -5 25 -5z"/>
<path d="M8104 1162 c-6 -4 -35 -97 -64 -207 -74 -285 -92 -345 -102 -345 -13
0 -43 55 -99 180 -28 63 -70 156 -94 205 -24 50 -47 100 -50 113 -7 25 -50 31
-78 10 -16 -12 -14 -20 20 -98 20 -47 45 -96 55 -110 10 -14 31 -65 48 -114
16 -48 46 -118 67 -155 21 -36 45 -83 54 -103 21 -45 51 -62 94 -54 54 10 73
34 95 116 10 41 30 109 44 150 14 41 30 102 36 135 6 33 20 92 30 130 11 39
22 89 26 113 l7 42 -39 0 c-22 0 -44 -4 -50 -8z m44 -54 c-7 -13 -11 -26 -10
-30 2 -8 -27 -32 -33 -26 -2 2 1 21 7 41 8 25 17 37 30 37 16 0 17 -3 6 -22z
m-470 -48 c6 -16 7 -32 2 -35 -10 -6 -15 1 -29 39 -8 20 -7 26 3 26 8 0 19
-13 24 -30z m457 -29 c-3 -6 -14 -11 -23 -11 -15 1 -15 2 2 15 21 16 32 13 21
-4z m-436 -32 c-16 -10 -23 -4 -14 10 3 6 11 8 17 5 6 -4 5 -9 -3 -15z m401 1
c0 -5 -5 -10 -11 -10 -5 0 -7 5 -4 10 3 6 8 10 11 10 2 0 4 -4 4 -10z m20 -30
c0 -20 -25 -38 -37 -26 -5 5 24 46 34 46 1 0 3 -9 3 -20z m-413 4 c-3 -3 -12
-4 -19 -1 -8 3 -5 6 6 6 11 1 17 -2 13 -5z m44 -89 c-3 -5 -7 -2 -9 8 -2 9 -7
17 -12 17 -11 0 -21 41 -13 54 4 5 14 -8 24 -30 9 -21 14 -43 10 -49z m343 36
c3 -5 -1 -12 -10 -15 -22 -9 -24 -8 -24 9 0 16 25 21 34 6z m1 -40 c-3 -6 -14
-11 -23 -11 -15 1 -15 2 2 15 21 16 32 13 21 -4z m-321 -27 c4 -10 1 -14 -6
-12 -15 5 -23 28 -10 28 5 0 13 -7 16 -16z m291 -4 c-3 -5 -10 -10 -16 -10 -5
0 -9 5 -9 10 0 6 7 10 16 10 8 0 12 -4 9 -10z m20 -19 c-3 -6 -14 -11 -23 -11
-15 1 -15 2 2 15 21 16 32 13 21 -4z m-285 -32 c0 -24 -23 -21 -28 4 -2 10 3
17 12 17 10 0 16 -9 16 -21z m260 -3 c0 -2 -7 -6 -15 -10 -8 -3 -15 -1 -15 4
0 6 7 10 15 10 8 0 15 -2 15 -4z m20 -16 c0 -13 -49 -60 -61 -60 -5 0 -9 7 -9
15 0 9 6 12 15 9 10 -4 13 -2 10 8 -4 9 3 19 17 26 30 14 28 14 28 2z m-260
-15 c0 -8 -7 -15 -15 -15 -16 0 -20 12 -8 23 11 12 23 8 23 -8z m16 -49 c19
-20 18 -37 -3 -34 -20 3 -33 17 -33 36 0 16 18 15 36 -2z m214 -11 c-7 -8 -17
-15 -22 -15 -6 0 -5 7 2 15 7 8 17 15 22 15 6 0 5 -7 -2 -15z m-186 -51 c8
-20 8 -24 -1 -24 -17 0 -35 19 -29 29 10 16 23 14 30 -5z m35 -69 c16 -28 17
-35 6 -35 -12 0 -45 47 -45 65 0 16 21 0 39 -30z m95 -19 c-3 -8 -13 -17 -22
-21 -13 -5 -13 -2 3 15 21 24 26 25 19 6z m-54 -31 c-7 -8 -18 -15 -24 -15 -6
0 -2 7 8 15 25 19 32 19 16 0z"/>
<path d="M5506 1135 c-20 -30 -30 -31 -89 -5 -41 18 -52 19 -93 9 -34 -9 -51
-20 -65 -43 -25 -40 -24 -52 4 -60 15 -4 27 0 37 12 24 28 44 32 96 16 78 -23
109 -19 149 21 30 31 33 38 23 55 -17 27 -42 25 -62 -5z m-71 -53 c-3 -3 -11
0 -18 7 -9 10 -8 11 6 5 10 -3 15 -9 12 -12z"/>
<path d="M7410 1113 c-37 -7 -39 -13 -29 -73 10 -61 44 -377 54 -512 l7 -88
49 2 c48 1 49 1 49 32 0 67 -40 484 -50 526 -6 24 -10 60 -8 80 3 31 0 35 -22
36 -14 1 -36 0 -50 -3z m38 -60 c2 -12 -4 -23 -14 -27 -11 -4 -15 -2 -11 8 3
8 1 16 -5 18 -7 3 -8 10 -4 17 11 17 30 8 34 -16z m-3 -53 c-3 -5 -1 -10 6
-10 7 0 10 -2 7 -5 -8 -9 -38 6 -32 16 3 5 10 9 15 9 6 0 7 -4 4 -10z m13 -62
c-5 -32 -28 -35 -28 -4 0 17 5 26 16 26 10 0 14 -7 12 -22z m22 -37 c0 -5 -7
-12 -16 -15 -24 -9 -28 -7 -14 9 14 17 30 20 30 6z m0 -40 c0 -5 -9 -19 -20
-32 l-19 -24 -1 26 c0 14 3 29 7 32 9 10 33 8 33 -2z m4 -56 c4 -10 -1 -15
-16 -15 -17 0 -18 2 -8 15 7 8 14 15 15 15 2 0 5 -7 9 -15z m-17 -52 c-15 -16
-17 -16 -17 -1 0 9 6 18 13 21 20 7 22 -2 4 -20z m12 -34 c-19 -12 -24 -2 -8
17 9 11 14 13 17 4 3 -7 -2 -16 -9 -21z m1 -34 c-11 -13 -10 -14 4 -9 18 7 23
-20 5 -31 -13 -9 -16 -6 -24 28 -6 22 -4 27 10 27 15 0 15 -3 5 -15z m10 -75
c-8 -15 -8 -20 2 -18 8 2 13 -15 15 -55 3 -56 2 -58 -19 -55 -21 3 -23 9 -26
76 -3 67 -1 72 18 72 18 0 19 -3 10 -20z"/>
<path d="M6885 1069 c-44 -5 -96 -14 -116 -19 l-36 -10 2 -112 c3 -129 21
-432 30 -495 6 -44 14 -50 43 -34 9 5 82 19 162 31 238 35 274 53 324 159 27
58 30 77 31 156 0 79 -4 98 -29 153 -66 143 -195 197 -411 171z m78 -36 c-7
-2 -19 -2 -25 0 -7 3 -2 5 12 5 14 0 19 -2 13 -5z m67 -7 c-7 -7 -14 -6 -21 1
-9 9 -7 12 9 10 14 -1 18 -5 12 -11z m100 -12 c55 -19 120 -79 120 -111 0 -14
6 -23 16 -23 10 0 14 -6 10 -15 -3 -8 2 -21 10 -30 9 -8 11 -15 5 -15 -6 0
-11 -7 -11 -16 0 -9 -6 -14 -12 -11 -7 2 -12 11 -10 21 2 9 -2 16 -8 16 -5 0
-10 8 -10 18 0 10 -7 28 -16 40 -8 12 -12 27 -9 32 3 6 2 10 -2 10 -5 0 -20
11 -35 25 -14 13 -38 27 -52 31 -15 3 -29 10 -32 15 -3 5 -14 9 -25 9 -11 0
-17 5 -14 10 8 14 22 12 75 -6z m-323 -15 c-41 -22 -58 -19 -37 6 7 8 27 15
44 15 l31 -1 -38 -20z m272 -30 c27 -11 52 -27 55 -35 3 -8 12 -14 20 -14 17
0 47 -53 66 -116 9 -30 9 -58 1 -110 -9 -63 -14 -73 -54 -111 -24 -22 -62 -46
-83 -52 -56 -15 -202 -34 -218 -28 -17 7 -24 56 -36 287 -5 100 -6 178 -1 183
32 32 173 30 250 -4z m-291 -37 c-1 -15 2 -35 6 -44 6 -14 4 -18 -10 -18 -18
0 -22 25 -15 88 2 25 20 1 19 -26z m12 -87 c0 -8 -5 -15 -12 -15 -9 0 -9 -3 0
-12 14 -14 17 -88 3 -88 -4 0 -11 21 -15 46 -9 69 -8 84 9 84 8 0 15 -7 15
-15z m500 -74 c0 -20 -27 -48 -37 -37 -9 8 14 56 27 56 5 0 10 -8 10 -19z
m-15 -84 c-14 -8 -15 -11 -4 -18 11 -7 12 -12 2 -29 -7 -11 -13 -26 -13 -34 0
-21 -28 -46 -51 -46 -19 0 -19 2 4 33 23 31 38 72 38 109 0 21 33 29 38 9 1
-8 -5 -18 -14 -24z m-485 26 c1 -16 10 -120 15 -171 7 -83 -11 -78 210 -57
l50 4 -55 -14 c-30 -9 -91 -18 -136 -21 l-81 -7 -6 33 c-14 67 -19 240 -8 240
6 0 11 -3 11 -7z m430 -167 c0 -12 -104 -56 -128 -55 -24 1 -24 2 7 9 18 4 43
17 54 29 18 18 67 30 67 17z"/>
<path d="M5971 991 c-64 -21 -136 -86 -163 -148 -26 -59 -41 -200 -28 -258 15
-67 65 -160 97 -182 83 -57 214 -77 335 -52 153 33 191 93 192 309 1 108 -2
131 -20 171 -28 61 -124 154 -166 163 -80 17 -193 15 -247 -3z m200 -20 c21
-5 57 -24 80 -42 24 -19 46 -35 48 -36 1 -1 0 -7 -4 -13 -5 -8 -13 -5 -26 9
-11 12 -25 21 -32 21 -7 0 -24 8 -37 17 -43 30 -179 35 -207 8 -9 -9 -23 -13
-34 -10 -14 5 -19 1 -19 -14 0 -12 -6 -21 -13 -21 -46 0 -9 43 59 70 52 20
126 25 185 11z m5 -73 c83 -22 107 -71 124 -243 18 -186 -32 -245 -209 -245
-92 0 -175 54 -199 130 -40 129 -35 205 19 280 37 51 72 73 128 81 73 10 88
10 137 -3z m162 -31 c6 -6 13 -24 17 -40 7 -24 5 -27 -20 -27 -23 0 -26 2 -15
15 11 13 10 14 -5 9 -12 -5 -16 -4 -12 3 4 6 1 13 -5 16 -10 3 -10 7 1 20 16
20 25 21 39 4z m-478 -21 c0 -3 -4 -8 -10 -11 -5 -3 -10 -1 -10 4 0 6 5 11 10
11 6 0 10 -2 10 -4z m520 -87 c0 -18 -28 -39 -52 -39 -8 1 -6 6 6 15 18 14 18
15 2 15 -9 0 -15 4 -12 9 4 5 1 11 -5 13 -7 2 5 4 25 5 29 1 36 -3 36 -18z
m10 -54 c0 -10 -10 -15 -26 -15 -22 0 -25 2 -14 15 7 8 19 15 26 15 8 0 14 -7
14 -15z m-565 -16 c-10 -15 -25 -10 -19 6 4 8 10 12 15 9 5 -3 7 -10 4 -15z
m565 -50 c0 -36 -16 -69 -34 -69 -18 0 -16 33 3 47 14 10 13 11 -6 7 -16 -5
-21 -2 -20 13 2 18 20 31 45 32 7 1 12 -11 12 -30z m-560 -13 c0 -3 -4 -8 -10
-11 -5 -3 -10 -1 -10 4 0 6 5 11 10 11 6 0 10 -2 10 -4z m20 -36 c0 -5 -4 -10
-10 -10 -5 0 -10 5 -10 10 0 6 5 10 10 10 6 0 10 -4 10 -10z m517 -65 c-7 -45
-36 -85 -79 -108 l-33 -18 28 21 c15 12 27 28 27 36 0 8 6 17 14 20 8 3 12 12
9 20 -3 8 0 14 7 14 7 0 10 7 6 17 -4 9 -1 20 6 25 20 12 21 10 15 -27z m-457
-91 c0 -14 -3 -14 -15 -4 -8 7 -15 14 -15 16 0 2 7 4 15 4 8 0 15 -7 15 -16z"/>
<path d="M5381 942 c-5 -9 -14 -40 -19 -67 -6 -28 -15 -63 -21 -80 -20 -56
-70 -240 -81 -300 -7 -33 -21 -93 -32 -133 -11 -41 -17 -76 -14 -79 3 -3 22
-6 43 -7 l37 -1 18 65 c10 36 21 80 24 98 7 32 7 32 63 32 31 1 76 5 101 10
62 12 84 -5 125 -93 l33 -70 55 -3 c31 -2 59 1 62 7 4 5 -13 49 -38 97 -25 48
-48 102 -52 121 -4 18 -18 49 -31 68 -13 20 -24 41 -24 47 0 6 -13 38 -29 71
-16 33 -47 99 -71 148 l-41 87 -49 0 c-37 0 -52 -4 -59 -18z m112 -43 c23 -29
22 -37 -10 -51 -16 -7 -44 -29 -64 -50 -20 -21 -42 -38 -49 -38 -9 0 -10 3 -1
13 6 8 8 17 5 20 -4 4 2 19 12 34 10 15 17 34 15 42 -1 7 0 25 4 38 5 22 10
25 38 19 18 -3 40 -16 50 -27z m38 -80 c12 -12 19 -29 16 -40 -3 -10 -1 -17 4
-14 4 3 11 -6 15 -20 7 -28 -9 -75 -26 -75 -17 0 -11 28 8 40 15 9 14 10 -5 5
-17 -5 -23 -2 -23 10 0 9 -4 13 -10 10 -5 -3 -10 -1 -10 4 0 20 -2 26 -11 37
-6 7 -4 16 6 24 8 7 15 17 15 23 0 5 -8 3 -18 -6 -23 -21 -32 -21 -32 -3 0 30
43 33 71 5z m-120 -67 c-5 -10 -20 -18 -33 -19 l-23 -2 25 19 c31 25 44 25 31
2z m95 -97 l34 -70 -37 -7 c-21 -4 -55 -7 -77 -7 -43 -1 -43 -7 -7 91 12 32
21 68 21 80 1 23 1 23 16 3 9 -11 31 -51 50 -90z m-139 48 c-9 -9 -20 -13 -24
-9 -4 4 -1 11 7 16 25 16 35 11 17 -7z m13 -28 c-7 -8 -20 -15 -29 -15 -12 0
-10 5 9 20 28 21 39 18 20 -5z m218 -28 c-2 -12 -12 -23 -23 -26 -17 -3 -18
-1 -6 13 11 14 11 16 -3 16 -15 0 -15 2 0 26 15 22 19 23 26 9 5 -8 8 -26 6
-38z m-238 -12 c-9 -11 -9 -15 -1 -15 7 0 9 -5 5 -11 -5 -8 -9 -8 -14 1 -4 7
-13 9 -19 6 -6 -4 -11 -1 -11 8 0 13 14 21 44 25 5 0 3 -6 -4 -14z m279 -87
c1 -11 -4 -15 -13 -12 -8 3 -24 1 -35 -6 -27 -14 -27 0 0 35 18 22 20 29 8 36
-12 8 -12 10 1 19 12 7 18 2 27 -23 6 -18 12 -40 12 -49z m-310 16 c-15 -16
-25 -21 -28 -13 -2 7 4 18 15 26 30 22 39 15 13 -13z m203 -36 c-5 -5 -26 -13
-46 -18 -31 -7 -35 -6 -25 6 7 8 14 12 17 10 2 -3 11 1 18 9 8 8 22 11 30 8
10 -3 12 -9 6 -15z m-132 -7 c0 -10 -24 -21 -43 -21 -7 0 -3 7 7 15 22 17 36
19 36 6z m45 -1 c-3 -5 -11 -10 -16 -10 -6 0 -7 5 -4 10 3 6 11 10 16 10 6 0
7 -4 4 -10z m183 -2 c-3 -7 -13 -15 -24 -17 -16 -3 -17 -1 -5 13 16 19 34 21
29 4z m29 -34 c-5 -30 -4 -34 8 -24 12 10 15 9 15 -3 0 -8 -7 -17 -15 -21 -8
-3 -15 -1 -15 4 0 6 -7 10 -15 10 -20 0 -19 10 3 27 16 14 16 14 0 9 -21 -6
-23 5 -6 22 22 22 31 13 25 -24z m-342 16 c-3 -5 -11 -10 -16 -10 -6 0 -7 5
-4 10 3 6 11 10 16 10 6 0 7 -4 4 -10z m374 -87 c-12 -15 -12 -16 3 -10 12 4
21 0 29 -14 13 -25 0 -43 -25 -33 -14 5 -14 9 -4 22 10 12 10 14 1 8 -7 -4
-13 -2 -13 3 0 6 -7 11 -15 11 -33 0 -11 27 24 29 11 1 11 -2 0 -16z m-409
-52 c0 -6 -5 -13 -10 -16 -6 -4 -8 -10 -5 -15 3 -5 1 -11 -5 -15 -11 -7 -13
15 -4 39 7 17 24 22 24 7z"/>
<path d="M5006 917 c-21 -15 -21 -11 4 -297 4 -58 5 -109 1 -113 -11 -11 -124
112 -170 184 -20 31 -63 92 -96 137 l-60 82 -55 -3 -55 -2 -3 -78 c-2 -42 2
-94 8 -115 6 -20 15 -127 20 -237 10 -252 11 -255 59 -255 20 0 42 4 49 8 18
12 17 174 -2 299 -9 57 -16 119 -16 140 l0 37 31 -30 c17 -16 47 -51 67 -79
20 -27 47 -64 61 -81 15 -17 40 -49 56 -70 17 -21 47 -56 67 -77 20 -22 38
-42 40 -46 9 -22 79 -61 108 -61 29 0 32 2 26 25 -12 49 -26 228 -20 265 3 20
-4 104 -16 186 -12 82 -23 158 -24 169 -1 25 -52 32 -80 12z m54 -46 c0 -28
-18 -71 -29 -71 -13 0 -11 74 2 82 19 12 27 9 27 -11z m-427 -26 c-21 -29 -38
-33 -23 -6 8 16 20 25 38 30 2 1 -5 -10 -15 -24z m67 -24 c0 -9 -61 -51 -74
-51 -4 0 -4 5 -1 10 3 6 1 10 -6 10 -19 0 -5 10 21 15 13 3 28 9 34 15 12 12
26 13 26 1z m88 -119 c-2 -9 -9 -17 -17 -20 -10 -3 -12 1 -8 17 5 22 -8 30
-15 9 -3 -8 -10 -3 -18 12 -7 14 -19 29 -26 33 -17 10 -18 34 -1 40 16 7 89
-72 85 -91z m262 77 c-7 -11 -14 -18 -17 -15 -3 3 0 12 7 21 18 21 23 19 10
-6z m16 -36 c-10 -10 -19 5 -10 18 6 11 8 11 12 0 2 -7 1 -15 -2 -18z m-413
-13 c3 -12 -3 -30 -14 -43 l-18 -22 -1 36 c0 50 22 70 33 29z m403 -28 c-18
-18 -31 -10 -23 12 4 10 13 13 22 9 15 -5 15 -7 1 -21z m24 -27 c-8 -10 -7
-14 2 -17 10 -4 8 -11 -5 -31 -21 -32 -22 -44 -2 -27 17 14 20 3 5 -20 -6 -9
-5 -17 3 -22 6 -4 8 -10 4 -15 -4 -4 -16 -2 -25 4 -33 21 -13 167 20 147 5 -3
5 -11 -2 -19z m-257 -29 c18 -4 19 -8 9 -18 -11 -11 -17 -8 -32 12 -10 13 -16
29 -12 35 4 6 8 3 10 -6 2 -10 13 -20 25 -23z m-173 4 c0 -5 -5 -10 -11 -10
-5 0 -7 5 -4 10 3 6 8 10 11 10 2 0 4 -4 4 -10z m10 -24 c0 -3 -4 -8 -10 -11
-5 -3 -10 -1 -10 4 0 6 5 11 10 11 6 0 10 -2 10 -4z m190 -26 c0 -5 -4 -10
-10 -10 -5 0 -10 5 -10 10 0 6 5 10 10 10 6 0 10 -4 10 -10z m-190 -9 c0 -12
-20 -25 -27 -18 -7 7 6 27 18 27 5 0 9 -4 9 -9z m228 -34 c2 -16 -2 -27 -8
-27 -7 0 -10 7 -6 15 3 9 0 15 -9 15 -16 0 -20 12 -8 24 13 12 28 -1 31 -27z
m-218 3 c0 -5 -5 -10 -11 -10 -5 0 -7 5 -4 10 3 6 8 10 11 10 2 0 4 -4 4 -10z
m287 -72 c9 -10 14 -21 10 -24 -10 -10 -47 7 -47 22 0 8 -4 14 -10 14 -5 0
-10 12 -10 28 l1 27 19 -25 c11 -14 27 -33 37 -42z m-297 38 c0 -3 -4 -8 -10
-11 -5 -3 -10 -1 -10 4 0 6 5 11 10 11 6 0 10 -2 10 -4z m415 -16 c-3 -5 -1
-10 5 -10 6 0 8 -4 5 -10 -3 -5 -1 -10 6 -10 8 0 10 -12 5 -42 -8 -47 -23 -71
-41 -64 -7 2 -18 -1 -24 -7 -6 -6 -13 -8 -16 -5 -3 3 2 13 11 23 12 12 19 13
24 5 5 -8 9 -6 14 6 10 25 0 29 -29 10 -29 -19 -53 -13 -35 9 6 8 18 11 25 9
20 -8 51 44 36 59 -16 16 -14 37 5 37 8 0 12 -4 9 -10z m-414 -23 c-10 -9 -11
-8 -5 6 3 10 9 15 12 12 3 -3 0 -11 -7 -18z m-1 -31 c0 -3 -4 -8 -10 -11 -5
-3 -10 -1 -10 4 0 6 5 11 10 11 6 0 10 -2 10 -4z m336 -7 c3 -6 2 -15 -2 -19
-12 -12 -38 5 -30 19 9 14 23 14 32 0z m-320 -26 c-10 -10 -19 5 -10 18 6 11
8 11 12 0 2 -7 1 -15 -2 -18z m-25 -69 l-9 -39 -1 36 c-1 20 2 39 6 42 12 13
13 0 4 -39z m31 14 c-7 -7 -12 -8 -12 -2 0 14 12 26 19 19 2 -3 -1 -11 -7 -17z
m8 -38 c0 -5 -5 -10 -11 -10 -5 0 -7 5 -4 10 3 6 8 10 11 10 2 0 4 -4 4 -10z
m410 -20 c0 -5 -4 -10 -10 -10 -5 0 -10 5 -10 10 0 6 5 10 10 10 6 0 10 -4 10
-10z m-433 -27 c-9 -9 -19 -14 -23 -11 -10 10 6 28 24 28 15 0 15 -1 -1 -17z"/>
<path d="M11752 888 c-15 -15 -16 -84 -2 -93 6 -4 28 -4 48 0 37 6 37 7 34 46
-2 21 -7 41 -11 43 -21 12 -59 14 -69 4z m48 -37 c0 -6 -4 -13 -10 -16 -5 -3
-10 1 -10 9 0 9 5 16 10 16 6 0 10 -4 10 -9z"/>
<path d="M11513 873 c-16 -6 -17 -89 -2 -98 6 -4 26 -4 45 -1 32 6 34 9 34 46
0 21 -3 41 -7 43 -16 9 -58 15 -70 10z m37 -48 c0 -8 -2 -15 -4 -15 -2 0 -6 7
-10 15 -3 8 -1 15 4 15 6 0 10 -7 10 -15z"/>
<path d="M11267 853 c-4 -3 -7 -26 -7 -50 l0 -43 45 0 45 0 0 40 c0 29 -5 42
-19 50 -22 11 -54 13 -64 3z"/>
</g>
</svg>
